<svg width="15" height="16" viewBox="0 0 15 16" fill="none" xmlns="http://www.w3.org/2000/svg">
<path d="M9.35339 16H3.38464C2.00611 16 0.884644 14.8785 0.884644 13.5V5.03125C0.884644 3.65272 2.00611 2.53125 3.38464 2.53125H9.35339C10.7319 2.53125 11.8534 3.65272 11.8534 5.03125V13.5C11.8534 14.8785 10.7319 16 9.35339 16ZM3.38464 3.78125C2.69542 3.78125 2.13464 4.34203 2.13464 5.03125V13.5C2.13464 14.1892 2.69542 14.75 3.38464 14.75H9.35339C10.0426 14.75 10.6034 14.1892 10.6034 13.5V5.03125C10.6034 4.34203 10.0426 3.78125 9.35339 3.78125H3.38464ZM14.3534 11.9375V2.5C14.3534 1.12147 13.2319 0 11.8534 0H4.91589C4.57067 0 4.29089 0.279781 4.29089 0.625C4.29089 0.970219 4.57067 1.25 4.91589 1.25H11.8534C12.5426 1.25 13.1034 1.81078 13.1034 2.5V11.9375C13.1034 12.2827 13.3832 12.5625 13.7284 12.5625C14.0736 12.5625 14.3534 12.2827 14.3534 11.9375Z" fill="white"/>
</svg>
