<svg width="125" height="36" viewBox="0 0 125 36" fill="none" xmlns="http://www.w3.org/2000/svg">
<g clip-path="url(#clip0_1_26)">
<path d="M47.5957 27.3024V8.64001H51.5678V27.3024H47.5957Z" fill="black"/>
<path d="M56.9124 27.3024V8.64001H61.0661L71.5288 21.0816V8.64001H75.6045V27.3024H71.4507L60.9363 14.809V27.3024H56.9124Z" fill="black"/>
<path d="M85.4711 27.3024C84.7614 27.3024 84.1124 27.1296 83.524 26.784C82.9525 26.4384 82.494 25.9805 82.1478 25.4103C81.8017 24.8227 81.6286 24.1747 81.6286 23.4663V12.4762C81.6286 11.7677 81.8017 11.1283 82.1478 10.5581C82.494 9.97057 82.9525 9.50401 83.524 9.15841C84.1124 8.81281 84.7614 8.64001 85.4711 8.64001H100.269V12.6835H86.5096C86.2326 12.6835 86.0162 12.7527 85.8606 12.8909C85.7217 13.0291 85.6526 13.2451 85.6526 13.5389V22.4035C85.6526 22.68 85.7217 22.896 85.8606 23.0515C86.0162 23.1898 86.2326 23.2589 86.5096 23.2589H100.269V27.3024H85.4711Z" fill="black"/>
<path d="M109.882 27.3024C109.189 27.3024 108.549 27.1296 107.96 26.784C107.372 26.4384 106.904 25.9719 106.558 25.3843C106.212 24.7968 106.04 24.1575 106.04 23.4663V12.4762C106.04 11.7677 106.212 11.1283 106.558 10.5581C106.904 9.97057 107.372 9.50401 107.96 9.15841C108.549 8.81281 109.189 8.64001 109.882 8.64001H120.889C121.582 8.64001 122.213 8.81281 122.785 9.15841C123.373 9.50401 123.84 9.97057 124.186 10.5581C124.55 11.1283 124.731 11.7677 124.731 12.4762V23.4663C124.731 24.1575 124.55 24.7968 124.186 25.3843C123.84 25.9719 123.373 26.4384 122.785 26.784C122.213 27.1296 121.582 27.3024 120.889 27.3024H109.882ZM110.063 23.2589H120.656V12.6835H110.063V23.2589Z" fill="black"/>
<path d="M0 5.76C0 2.57884 2.58298 0 5.76923 0H30.2885C33.4747 0 36.0577 2.57884 36.0577 5.76V30.24C36.0577 33.4211 33.4747 36 30.2885 36H5.76923C2.58298 36 0 33.4211 0 30.24V5.76Z" fill="black"/>
<path d="M6.84998 24.84L10.4846 11.16H14.4221L10.7875 24.84H6.84998Z" fill="white"/>
<path d="M14.4221 24.84L18.0567 11.16H21.9942L18.3596 24.84H14.4221Z" fill="white"/>
<path d="M21.9942 24.84L25.6288 11.16H29.5663L25.9317 24.84H21.9942Z" fill="white"/>
</g>
<defs>
<clipPath id="clip0_1_26">
<rect width="125" height="36" fill="white"/>
</clipPath>
</defs>
</svg>
