<svg width="139" height="40" viewBox="0 0 139 40" fill="none" xmlns="http://www.w3.org/2000/svg">
    <path d="M52.8 30.3361V9.6001H57.2064V30.3361H52.8Z" fill="black"/>
    <path d="M63.1354 30.3361V9.6001H67.7434L79.3498 23.4241V9.6001H83.8714V30.3361H79.2634L67.5994 16.4545V30.3361H63.1354Z" fill="black"/>
    <path d="M94.8163 30.3361C94.0291 30.3361 93.3091 30.1441 92.6563 29.7601C92.0227 29.3761 91.5139 28.8673 91.1299 28.2337C90.7459 27.5809 90.5539 26.8609 90.5539 26.0737V13.8625C90.5539 13.0753 90.7459 12.3649 91.1299 11.7313C91.5139 11.0785 92.0227 10.5601 92.6563 10.1761C93.3091 9.7921 94.0291 9.6001 94.8163 9.6001H111.232V14.0929H95.9683C95.6611 14.0929 95.4211 14.1697 95.2483 14.3233C95.0947 14.4769 95.0179 14.7169 95.0179 15.0433V24.8929C95.0179 25.2001 95.0947 25.4401 95.2483 25.6129C95.4211 25.7665 95.6611 25.8433 95.9683 25.8433H111.232V30.3361H94.8163Z" fill="black"/>
    <path d="M121.896 30.3361C121.128 30.3361 120.418 30.1441 119.765 29.7601C119.112 29.3761 118.594 28.8577 118.21 28.2049C117.826 27.5521 117.634 26.8417 117.634 26.0737V13.8625C117.634 13.0753 117.826 12.3649 118.21 11.7313C118.594 11.0785 119.112 10.5601 119.765 10.1761C120.418 9.7921 121.128 9.6001 121.896 9.6001H134.107C134.875 9.6001 135.576 9.7921 136.21 10.1761C136.862 10.5601 137.381 11.0785 137.765 11.7313C138.168 12.3649 138.37 13.0753 138.37 13.8625V26.0737C138.37 26.8417 138.168 27.5521 137.765 28.2049C137.381 28.8577 136.862 29.3761 136.21 29.7601C135.576 30.1441 134.875 30.3361 134.107 30.3361H121.896ZM122.098 25.8433H133.848V14.0929H122.098V25.8433Z" fill="black"/>
    <path d="M0 6.4C0 2.86538 2.86538 0 6.4 0H33.6C37.1346 0 40 2.86538 40 6.4V33.6C40 37.1346 37.1346 40 33.6 40H6.4C2.86538 40 0 37.1346 0 33.6V6.4Z" fill="black"/>
    <path d="M7.6001 27.5999L11.6321 12.3999H16.0001L11.9681 27.5999H7.6001Z" fill="white"/>
    <path d="M16.0001 27.5999L20.0321 12.3999H24.4001L20.3681 27.5999H16.0001Z" fill="white"/>
    <path d="M24.4001 27.5999L28.4321 12.3999H32.8001L28.7681 27.5999H24.4001Z" fill="white"/>
</svg>
